<svg width="65" height="65" viewBox="0 0 65 65" fill="none" xmlns="http://www.w3.org/2000/svg">
<path d="M10.0905 12.3242L0 22.4147L10.0905 32.5052L20.181 22.4147L10.0905 12.3242Z" fill="#414042"/>
<path d="M20.1978 22.4102L10.1035 12.3159C12.7785 14.9919 14.2813 18.6208 14.2813 22.4045C14.2813 26.1884 12.7785 29.8172 10.1035 32.4932L0.00909424 42.5763L10.1035 52.6706L20.1978 42.5763L30.2921 32.4932L20.1978 22.4102Z" fill="url(#paint0_linear_160_362)"/>
<path d="M54.8999 52.6927L64.9901 42.6022L54.8999 32.5117L44.8094 42.6022L54.8999 52.6927Z" fill="#414042"/>
<path d="M44.8112 42.5989L54.9055 52.6819C52.2304 50.0059 50.7277 46.377 50.7277 42.5932C50.7277 38.8095 52.2304 35.1806 54.9055 32.5046L65 22.4102L54.9055 12.3159L44.8112 22.4102L34.7282 32.5046L44.8112 42.5989Z" fill="url(#paint1_linear_160_362)"/>
<path d="M12.3233 54.9109L22.4138 65.0014L32.5043 54.9109L22.4138 44.8203L12.3233 54.9109Z" fill="#414042"/>
<path d="M22.4156 44.8057L12.3214 54.9C14.9973 52.225 18.6261 50.7222 22.41 50.7222C26.1937 50.7222 29.8226 52.225 32.4986 54.9L42.5817 64.9945L52.676 54.9L42.5817 44.8057L32.4986 34.7227L22.4156 44.8057Z" fill="url(#paint2_linear_160_362)"/>
<path d="M52.6924 10.0906L42.6018 0L32.5114 10.0905L42.6018 20.181L52.6924 10.0906Z" fill="#414042"/>
<path d="M42.6042 20.1921L52.6873 10.0978C50.0113 12.7728 46.3824 14.2756 42.5986 14.2756C38.8148 14.2756 35.186 12.7728 32.5099 10.0978L22.4156 0.00341797L12.3214 10.0978L22.4156 20.1921L32.5099 30.2865L42.6042 20.1921Z" fill="url(#paint3_linear_160_362)"/>
<defs>
<linearGradient id="paint0_linear_160_362" x1="15.0488" y1="51.0184" x2="15.2977" y2="16.1069" gradientUnits="userSpaceOnUse">
<stop stop-color="#414042"/>
<stop offset="1" stop-color="#E6E7E8"/>
</linearGradient>
<linearGradient id="paint1_linear_160_362" x1="118955" y1="15259.7" x2="118943" y2="16505" gradientUnits="userSpaceOnUse">
<stop stop-color="#414042"/>
<stop offset="1" stop-color="#E6E7E8"/>
</linearGradient>
<linearGradient id="paint2_linear_160_362" x1="76650.3" y1="91797.2" x2="75716.3" y2="91792.3" gradientUnits="userSpaceOnUse">
<stop stop-color="#414042"/>
<stop offset="1" stop-color="#E6E7E8"/>
</linearGradient>
<linearGradient id="paint3_linear_160_362" x1="62506.4" y1="-47520.4" x2="63440.7" y2="-47515.4" gradientUnits="userSpaceOnUse">
<stop stop-color="#414042"/>
<stop offset="1" stop-color="#E6E7E8"/>
</linearGradient>
</defs>
</svg>
